HIERARCHY
ROOT Hips
{
 OFFSET 0.000000 0.000000 0.000000
 CHANNELS 6 Xposition Yposition Zposition Yrotation Xrotation Zrotation
 JOINT Chest
 {
  OFFSET 0.000000 10.385163 0.011643
  CHANNELS 3 Yrotation Xrotation Zrotation
  JOINT Chest2
  {
   OFFSET 0.000000 11.579334 -0.021150
   CHANNELS 3 Yrotation Xrotation Zrotation
   JOINT Chest3
   {
    OFFSET 0.000000 10.463212 0.000000
    CHANNELS 3 Yrotation Xrotation Zrotation
    JOINT Chest4
    {
     OFFSET 0.000000 10.463212 0.000000
     CHANNELS 3 Yrotation Xrotation Zrotation
     JOINT Neck
     {
      OFFSET 0.000000 14.544862 0.000000
      CHANNELS 3 Yrotation Xrotation Zrotation
      JOINT Head
      {
       OFFSET 0.000000 9.730630 -0.050295
       CHANNELS 3 Yrotation Xrotation Zrotation
       End Site
       {
        OFFSET 0.000000 18.757589 -0.026270
       }
      }
     }
     JOINT RightCollar
     {
      OFFSET -2.985174 8.102313 0.000000
      CHANNELS 3 Yrotation Xrotation Zrotation
      JOINT RightShoulder
      {
       OFFSET -13.558590 0.000000 0.000000
       CHANNELS 3 Yrotation Xrotation Zrotation
       JOINT RightElbow
       {
        OFFSET -28.208579 0.000000 0.000000
        CHANNELS 3 Yrotation Xrotation Zrotation
        JOINT RightWrist
        {
         OFFSET -23.322907 0.000000 0.010349
         CHANNELS 3 Yrotation Xrotation Zrotation
         End Site
         {
          OFFSET -17.603338 0.000000 0.000000
         }
        }
       }
      }
     }
     JOINT LeftCollar
     {
      OFFSET 2.985174 8.102313 0.000000
      CHANNELS 3 Yrotation Xrotation Zrotation
      JOINT LeftShoulder
      {
       OFFSET 13.558590 0.000000 0.000000
       CHANNELS 3 Yrotation Xrotation Zrotation
       JOINT LeftElbow
       {
        OFFSET 28.208579 0.000000 0.000000
        CHANNELS 3 Yrotation Xrotation Zrotation
        JOINT LeftWrist
        {
         OFFSET 23.322907 0.000000 0.010349
         CHANNELS 3 Yrotation Xrotation Zrotation
         End Site
         {
          OFFSET 17.603338 0.000000 0.000000
         }
        }
       }
      }
     }
    }
   }
  }
 }
 JOINT RightHip
 {
  OFFSET -8.341224 -0.057053 -0.005822
  CHANNELS 3 Yrotation Xrotation Zrotation
  JOINT RightKnee
  {
   OFFSET 0.000000 -44.280013 0.005508
   CHANNELS 3 Yrotation Xrotation Zrotation
   JOINT RightAnkle
   {
    OFFSET 0.000000 -43.261728 0.009315
    CHANNELS 3 Yrotation Xrotation Zrotation
    JOINT RightToe
    {
     OFFSET 0.000000 -8.082955 18.257715
     CHANNELS 3 Yrotation Xrotation Zrotation
     End Site
     {
      OFFSET 0.000000 -1.634678 7.189621
     }
    }
   }
  }
 }
 JOINT LeftHip
 {
  OFFSET 8.341224 -0.057053 -0.005822
  CHANNELS 3 Yrotation Xrotation Zrotation
  JOINT LeftKnee
  {
   OFFSET 0.000000 -44.280013 0.005508
   CHANNELS 3 Yrotation Xrotation Zrotation
   JOINT LeftAnkle
   {
    OFFSET 0.000000 -43.261728 0.009315
    CHANNELS 3 Yrotation Xrotation Zrotation
    JOINT LeftToe
    {
     OFFSET 0.000000 -8.082955 18.257715
     CHANNELS 3 Yrotation Xrotation Zrotation
     End Site
     {
      OFFSET 0.000000 -1.634678 7.189621
     }
    }
   }
  }
 }
}
MOTION
Frames: 11
Frame Time: 0.016667
-20.304926 97.384814 91.933569 124.431783 6.978761 3.875956 2.088094 5.408522 -0.767460 0.935993 2.400373 -0.365005 0.936024 2.400390 -0.364968 0.703367 1.799744 -0.277339 21.791197 16.951946 -6.674176 42.140089 0.517707 -18.758146 -1.136862 -2.378932 4.091454 -5.539881 -18.175145 70.971262 49.138462 -32.552777 42.158989 -15.328009 -1.724622 -6.939818 6.575327 -1.843855 -7.546180 -9.196836 -15.888304 -62.941780 -33.550079 -52.262885 -43.179595 13.323008 -6.438107 4.310489 -6.879190 -12.547398 -1.976246 5.090615 14.663392 0.015046 -4.750175 -10.758937 -1.577250 0.000000 -0.000000 0.000000 2.946358 -11.702895 -2.886469 1.657838 5.382047 -0.133090 2.385925 -0.073856 -5.470417 0.000000 0.000000 0.000000
-21.307320 97.531660 92.131194 125.286671 8.290512 4.385391 1.948589 5.211268 -0.674502 0.872792 2.313326 -0.321284 0.872840 2.313347 -0.321235 0.655785 1.734566 -0.244167 21.518251 16.748922 -6.951766 41.775550 0.177777 -19.260811 -1.011915 -2.659304 3.885044 -5.354769 -18.378961 70.286092 49.529686 -32.935408 41.649421 -15.343961 -1.791523 -6.721811 7.083603 -1.337024 -7.691012 -9.882913 -17.113722 -64.058346 -34.285826 -51.821877 -42.312514 13.272472 -6.310308 4.625038 -3.882003 -14.778052 -3.022957 1.060715 15.543119 -0.658630 -4.478158 -10.590485 -0.920503 0.000000 -0.000000 -0.000000 1.770692 -13.526905 -3.283141 1.445419 5.095955 -0.114561 0.337468 1.080134 -6.109505 0.000000 0.000000 0.000000
-22.224200 97.672787 92.218865 126.159268 9.160202 4.956717 1.818824 5.191380 -0.621455 0.814471 2.304835 -0.296275 0.814471 2.304835 -0.296275 0.611889 1.728236 -0.225250 21.247867 16.508759 -7.130940 41.402795 -0.266556 -19.602940 -0.888339 -2.913982 3.703968 -5.190529 -18.562419 69.575739 49.853985 -33.394741 41.190093 -15.350838 -1.861977 -6.573606 7.427186 -0.874865 -7.862494 -10.725468 -18.168306 -64.939369 -35.179813 -51.516339 -41.291834 13.190744 -6.202207 4.900403 -2.408613 -16.314535 -4.008603 -1.202267 16.027690 -1.168348 -4.426861 -10.346248 -0.440119 0.000000 0.000000 0.000000 0.012273 -14.843804 -3.385696 0.923163 4.846758 -0.119349 -1.576235 1.713955 -7.023068 0.000000 -0.000000 0.000000
-22.987735 97.799964 92.072977 127.067222 9.157993 5.664598 1.659764 5.541980 -0.638482 0.744251 2.460765 -0.303369 0.744167 2.460741 -0.303427 0.559215 1.845176 -0.230571 20.981008 16.202744 -7.173347 41.018787 -0.881668 -19.724567 -0.734172 -3.153137 3.551344 -5.047843 -18.722312 68.808569 50.058984 -34.016812 40.797065 -15.334335 -1.933069 -6.545662 7.495293 -0.491512 -8.129134 -11.902604 -18.942008 -65.354895 -36.432613 -51.456993 -39.912782 13.028088 -6.137619 5.077771 -4.419623 -16.619653 -4.512166 0.311358 15.632596 -1.182849 -4.715342 -9.931648 -0.395842 0.000000 0.000000 0.000000 -2.833931 -15.183461 -3.140555 -0.315789 4.596039 -0.152603 -3.260018 1.437004 -8.401701 0.000000 0.000000 0.000000
-23.665755 97.921423 91.817135 127.971052 8.709833 6.404713 1.501921 6.071280 -0.690503 0.675432 2.696062 -0.326212 0.675347 2.696040 -0.326265 0.507810 2.021661 -0.247668 20.718852 15.857941 -7.118406 40.625262 -1.602993 -19.687881 -0.581923 -3.367619 3.424025 -4.928098 -18.859138 68.017966 50.198955 -34.718379 40.457659 -15.308544 -2.008951 -6.587434 7.400300 -0.159005 -8.420265 -13.254393 -19.548304 -65.507463 -37.859629 -51.513367 -38.357539 12.835342 -6.093806 5.217318 -8.033478 -16.369733 -4.757908 3.600056 14.829114 -0.973573 -5.222521 -9.437818 -0.534634 0.000000 -0.000000 0.000000 -6.266032 -15.018874 -2.670326 -1.861100 4.366768 -0.195343 -4.762331 0.505414 -9.894013 0.000000 0.000000 0.000000
-24.301119 98.021048 91.594906 128.806663 8.347225 7.008000 1.370847 6.461268 -0.722606 0.618343 2.869535 -0.339746 0.618343 2.869535 -0.339746 0.465257 2.151811 -0.257662 20.506796 15.617930 -7.026377 40.281378 -2.135902 -19.560260 -0.432988 -3.525981 3.316882 -4.996503 -18.923386 67.387223 50.302262 -35.236799 40.295911 -15.307633 -2.052280 -6.609642 7.318457 0.065687 -8.668597 -14.360098 -19.916448 -65.547515 -38.848125 -51.602692 -37.253162 12.671940 -6.075007 5.328983 -10.787877 -16.227092 -5.077727 6.022445 14.136242 -0.826057 -5.652883 -8.984941 -0.598270 0.000000 0.000000 0.000000 -9.243685 -14.811282 -2.117451 -2.699356 4.216921 -0.232384 -5.610366 -0.515646 -10.866287 0.000000 -0.000000 0.000000
-24.905270 98.089191 91.468606 129.579495 8.284441 7.402747 1.283844 6.571429 -0.712898 0.579822 2.918674 -0.334472 0.579863 2.918681 -0.334448 0.436426 2.188701 -0.253538 20.360537 15.554087 -6.888782 39.994577 -2.351810 -19.303423 -0.270617 -3.589275 3.218451 -5.425863 -18.921188 67.024234 50.336146 -35.432957 40.429163 -15.355711 -2.040945 -6.566621 7.319672 0.146679 -8.860602 -15.119203 -19.966367 -65.484492 -39.113352 -51.775704 -36.875194 12.565299 -6.093637 5.424877 -11.725048 -16.405529 -5.538940 6.522972 13.782747 -0.817447 -5.879676 -8.618470 -0.476413 0.000000 -0.000000 0.000000 -11.739313 -14.736817 -1.389628 -2.151267 4.205135 -0.279630 -5.486172 -1.352808 -11.142874 0.000000 0.000000 0.000000
-25.466766 98.135501 91.375920 130.291315 8.315370 7.669209 1.228641 6.542791 -0.689615 0.554926 2.906080 -0.323306 0.554948 2.906081 -0.323293 0.417673 2.179270 -0.245050 20.260884 15.596525 -6.713818 39.751119 -2.377755 -18.952168 -0.111738 -3.598028 3.145155 -6.038502 -18.857877 66.823465 50.328127 -35.444930 40.741140 -15.428850 -1.996910 -6.504475 7.341820 0.119222 -9.014913 -15.619260 -19.778985 -65.341035 -38.936603 -52.006211 -36.954951 12.487185 -6.137580 5.492022 -11.806514 -16.633596 -6.048442 6.169108 13.564851 -0.850898 -6.031774 -8.294429 -0.273948 0.000000 -0.000000 -0.000000 -13.780533 -14.587238 -0.553700 -0.901314 4.299820 -0.346327 -4.744159 -2.115621 -11.009610 0.000000 -0.000000 0.000000
-25.994137 98.172808 91.273469 130.884164 8.344310 7.878713 1.190724 6.479401 -0.676375 0.537797 2.877994 -0.316765 0.537797 2.877994 -0.316765 0.404756 2.158220 -0.240059 20.199095 15.679465 -6.586693 39.578323 -2.299978 -18.681596 -0.007835 -3.640893 3.133293 -6.472532 -18.687655 66.649363 50.394047 -35.424882 41.003924 -15.489663 -1.948559 -6.471790 7.364743 0.033897 -9.114860 -15.716627 -19.531076 -65.301678 -38.547959 -52.117584 -37.314761 12.413473 -6.174406 5.501428 -11.465411 -16.802840 -6.597470 5.527453 13.386273 -0.902116 -6.198888 -7.999218 -0.049759 -0.000000 0.000000 -0.000000 -14.421521 -14.267892 0.081058 0.017244 4.427796 -0.414708 -3.966226 -2.695543 -10.640713 0.000000 -0.000000 0.000000
-26.479851 98.205806 91.152871 131.268266 8.355606 8.053256 1.185529 6.400514 -0.690136 0.535595 2.842924 -0.322608 0.535600 2.842935 -0.322608 0.403124 2.131928 -0.244401 20.188343 15.805148 -6.542575 39.510658 -2.097216 -18.557386 0.007807 -3.777151 3.223385 -6.524229 -18.340778 66.427873 50.601013 -35.426516 41.123149 -15.526813 -1.904362 -6.496793 7.380283 -0.137923 -9.137489 -15.203970 -19.253193 -65.481754 -37.920570 -51.992870 -38.011193 12.341552 -6.194774 5.433718 -10.530168 -16.872496 -7.240499 4.564513 13.246628 -0.982141 -6.424367 -7.739791 0.188375 0.000000 0.000000 0.000000 -12.872714 -13.690919 0.314606 0.220113 4.480780 -0.458918 -3.197990 -3.017536 -9.931272 0.000000 0.000000 0.000000
-26.931440 98.229803 91.022508 131.533242 8.367654 8.170514 1.197645 6.287432 -0.714278 0.541156 2.792590 -0.333212 0.541160 2.792603 -0.333211 0.407317 2.094168 -0.252334 20.215855 15.972946 -6.545687 39.515468 -1.789057 -18.512001 -0.032607 -3.949288 3.374290 -6.399430 -17.885639 66.236172 50.881156 -35.395176 41.193031 -15.552379 -1.856105 -6.551169 7.396040 -0.369497 -9.106627 -14.294096 -18.908548 -65.750206 -37.094491 -51.736722 -38.970426 12.275445 -6.208961 5.307840 -9.174416 -16.868302 -7.922075 3.314113 13.148694 -1.081744 -6.665182 -7.508718 0.448156 0.000000 0.000000 0.000000 -9.936820 -12.958467 0.384543 0.092558 4.553630 -0.491631 -2.385734 -3.216817 -8.995153 0.000000 -0.000000 0.000000
